# xmcd CD database file
#
# Track frame offsets:
#	150
#	24362
#	41478
#
# Disc length: 784 seconds
#
# Revision: 0
# Processed by: cddbd v1.5.2PL0 Copyright (c) Steve Scherf et al.
# Submitted via: CD2WAV32(JP) R3.22
#
DISCID=18030e03
DTITLE=アンジェラ・アキ - 孤独のカケラ
DYEAR=2007
DGENRE=JPop
TTITLE0=孤独のカケラ
TTITLE1=孤独のカケラ -piano version-
TTITLE2=Solitude
EXTD=
EXTT0=
EXTT1=
EXTT2=
PLAYORDER=
